<?xml version="1.0" standalone="no"?>
<!DOCTYPE svg PUBLIC "-//W3C//DTD SVG 20010904//EN"
 "http://www.w3.org/TR/2001/REC-SVG-20010904/DTD/svg10.dtd">
<svg version="1.0" xmlns="http://www.w3.org/2000/svg"
 width="279.000000pt" height="302.000000pt"  viewBox="0 0 279.000000 302.000000"
 preserveAspectRatio="xMidYMid meet">

<g transform="translate(0.000000,302.000000) scale(0.100000,-0.100000)"
fill="#000000" stroke="none">
<path d="M1497 2545 c-464 -78 -941 -497 -1097 -962 -76 -230 -85 -441 -25
-630 105 -331 432 -526 815 -484 236 26 438 109 651 267 279 208 467 478 556
801 25 89 28 114 28 263 -1 185 -12 242 -72 365 -62 126 -128 200 -241 273
-167 107 -388 145 -615 107z m340 -150 c71 -17 182 -65 200 -86 14 -17 -32
-128 -112 -269 -118 -210 -225 -299 -575 -480 -104 -54 -224 -122 -266 -151
-174 -120 -294 -261 -415 -485 -28 -52 -56 -93 -62 -91 -20 6 -86 140 -103
212 -37 146 -14 366 56 542 131 329 440 631 775 759 157 59 370 80 502 49z
m384 -300 c61 -127 78 -247 56 -400 -37 -268 -163 -505 -381 -720 -329 -324
-774 -449 -1089 -306 -36 15 -67 33 -71 39 -10 17 76 183 161 309 119 178 215
254 535 419 383 198 520 326 668 623 33 66 64 121 70 121 5 0 28 -38 51 -85z"/>
</g>
</svg>
