<?xml version="1.0" standalone="no"?>
<!DOCTYPE svg PUBLIC "-//W3C//DTD SVG 20010904//EN"
 "http://www.w3.org/TR/2001/REC-SVG-20010904/DTD/svg10.dtd">
<svg version="1.0" xmlns="http://www.w3.org/2000/svg"
 width="200.000000pt" height="200.000000pt" viewBox="0 0 200.000000 200.000000"
 preserveAspectRatio="xMidYMid meet">

<g transform="translate(0.000000,200.000000) scale(0.100000,-0.100000)"
fill="#000000" stroke="none">
<path d="M1425 1568 c-7 -24 -25 -93 -25 -100 0 -5 6 -8 13 -8 11 0 37 77 37
111 0 14 -20 11 -25 -3z"/>
<path d="M122 1531 c-62 -40 -91 -126 -61 -184 7 -12 76 -115 156 -229 l144
-207 -25 -24 c-18 -18 -27 -44 -37 -103 -11 -69 -17 -83 -46 -110 -24 -22 -33
-39 -32 -60 1 -38 22 -97 37 -102 16 -5 15 7 -3 58 -8 23 -15 44 -15 47 0 2
16 19 35 38 21 22 36 48 40 72 21 122 28 137 70 156 82 36 90 43 120 102 l30
60 54 0 c46 1 57 5 75 28 25 32 38 33 77 10 25 -15 35 -15 72 -6 24 7 53 9 65
6 28 -7 29 13 1 27 -15 9 -31 8 -63 -3 -40 -14 -46 -14 -72 4 -40 26 -62 24
-92 -11 -23 -26 -30 -29 -69 -23 -53 7 -67 -3 -102 -76 -15 -32 -38 -62 -53
-70 -24 -14 -28 -14 -47 3 -20 19 -20 45 0 127 10 41 78 109 108 109 10 0 29
-16 42 -35 22 -32 47 -42 42 -17 -4 19 -244 356 -278 391 -28 29 -42 35 -87
38 -41 3 -60 -1 -86 -16z m138 -26 c17 -9 30 -18 30 -20 0 -3 -18 -14 -40 -25
-48 -25 -90 -84 -97 -139 -3 -23 -8 -41 -12 -41 -3 0 -18 20 -33 44 -41 63
-39 117 6 162 28 28 42 34 75 34 23 0 55 -7 71 -15z m89 -109 c33 -47 34 -50
16 -60 -67 -39 -101 -85 -122 -165 l-8 -35 -34 52 c-31 48 -33 57 -27 105 4
29 16 68 26 85 22 35 77 74 99 70 8 -2 31 -25 50 -52z m95 -134 c35 -52 37
-57 20 -67 -56 -32 -95 -79 -112 -138 l-18 -60 -36 54 c-35 52 -36 56 -28 106
12 69 36 109 85 139 22 13 42 24 45 24 3 -1 22 -26 44 -58z"/>
<path d="M1112 1326 c-40 -32 -43 -33 -92 -24 -62 11 -87 -1 -120 -60 -13 -23
-37 -46 -56 -56 -34 -15 -46 -36 -21 -36 25 0 75 39 104 82 l29 43 70 -3 c66
-3 70 -2 98 27 35 36 65 39 92 10 30 -34 60 -41 101 -24 64 27 75 22 134 -60
57 -79 66 -85 167 -101 24 -4 51 -14 62 -23 10 -9 35 -60 55 -115 35 -89 42
-101 86 -133 43 -31 49 -39 49 -71 0 -38 -17 -152 -23 -158 -3 -3 -539 -54
-569 -54 -7 0 -8 14 -4 38 4 30 1 45 -19 75 -14 20 -28 57 -32 82 -6 48 -35
96 -49 82 -5 -4 -3 -16 3 -25 6 -10 14 -38 18 -62 4 -25 18 -63 32 -84 22 -34
24 -45 17 -75 l-9 -36 -519 -45 c-373 -32 -521 -49 -524 -57 -2 -8 5 -13 15
-13 40 0 1737 151 1741 155 13 12 -14 25 -40 20 l-30 -7 8 59 c5 32 9 81 9
108 0 49 -1 51 -47 80 -44 28 -50 37 -88 135 -23 58 -46 110 -52 117 -11 14
-52 27 -129 43 -55 11 -58 13 -109 86 -61 85 -81 95 -149 70 -58 -20 -53 -21
-89 14 -41 39 -71 38 -120 -4z"/>
<path d="M1644 1340 c-47 -20 -65 -40 -37 -40 26 1 103 37 103 50 0 14 -18 12
-66 -10z"/>
<path d="M1110 1162 c0 -6 19 -16 43 -22 23 -6 49 -13 59 -16 28 -8 31 15 3
26 -45 17 -105 24 -105 12z"/>
<path d="M1402 1044 c-40 -34 -52 -54 -34 -54 16 0 102 72 96 81 -9 15 -19 11
-62 -27z"/>
<path d="M945 1061 c-86 -35 -113 -162 -47 -223 56 -53 113 -62 169 -28 92 56
94 177 4 237 -35 23 -88 29 -126 14z"/>
<path d="M642 998 c4 -11 85 -37 116 -38 32 0 1 25 -44 37 -62 16 -77 16 -72
1z"/>
<path d="M1411 913 c-44 -22 -71 -67 -71 -122 0 -176 255 -189 276 -14 13 107
-105 185 -205 136z"/>
<path d="M591 882 c-164 -83 -41 -325 125 -246 102 48 97 195 -8 250 -36 19
-76 18 -117 -4z"/>
<path d="M1732 724 c-40 -34 -52 -54 -34 -54 16 0 92 64 92 77 0 21 -14 15
-58 -23z"/>
<path d="M1053 683 c-25 -8 -43 -21 -43 -30 0 -15 4 -14 79 12 38 13 54 35 24
34 -10 0 -37 -7 -60 -16z"/>
<path d="M401 649 c-62 -21 -65 -24 -57 -38 7 -11 126 26 126 39 0 17 -16 17
-69 -1z"/>
<path d="M625 317 c-26 -46 -31 -67 -16 -67 10 0 61 83 61 99 0 24 -20 9 -45
-32z"/>
<path d="M875 293 c12 -49 34 -93 46 -93 13 0 8 27 -16 83 -18 43 -41 51 -30
10z"/>
</g>
</svg>
