<?xml version="1.0" standalone="no"?>
<!DOCTYPE svg PUBLIC "-//W3C//DTD SVG 20010904//EN"
 "http://www.w3.org/TR/2001/REC-SVG-20010904/DTD/svg10.dtd">
<svg version="1.0" xmlns="http://www.w3.org/2000/svg"
 width="256.000000pt" height="256.000000pt" viewBox="0 0 256.000000 256.000000"
 preserveAspectRatio="xMidYMid meet">

<g transform="translate(0.000000,256.000000) scale(0.100000,-0.100000)"
fill="#000000" stroke="none">
<path d="M194 2476 l-34 -34 0 -917 0 -917 34 -34 34 -34 682 0 c676 0 683 0
717 -21 37 -23 55 -52 73 -118 8 -31 8 -47 1 -54 -17 -17 -13 -62 15 -166 41
-153 13 -148 351 -62 159 40 298 79 310 87 30 19 29 51 -5 179 -25 92 -29 101
-59 115 -36 17 -38 27 -18 85 8 22 15 58 15 79 0 54 -88 387 -108 410 -10 10
-29 24 -45 30 l-27 12 -3 660 c-2 611 -3 661 -20 685 -9 14 -29 31 -43 37 -18
9 -267 12 -930 12 l-906 0 -34 -34z m1858 -33 c15 -13 18 -32 18 -110 l0 -93
-930 0 -930 0 0 94 c0 87 2 96 22 110 20 14 123 16 912 16 814 0 891 -1 908
-17z m18 -810 l0 -557 -27 26 c-37 35 -75 44 -111 26 -27 -14 -31 -13 -56 9
-28 24 -99 33 -111 13 -12 -20 -24 -9 -31 28 -4 20 -7 39 -6 42 1 3 23 7 49
10 l48 5 0 150 0 150 -245 0 -245 0 0 -150 0 -150 90 -5 90 -5 56 -215 c31
-118 55 -217 53 -219 -2 -2 -23 8 -48 23 -74 43 -152 29 -190 -34 -26 -45 -20
-78 22 -119 20 -20 48 -44 62 -53 23 -16 -12 -17 -595 -17 -546 -1 -623 1
-643 15 l-22 15 0 785 0 784 930 0 930 0 0 -557z m-282 -250 l3 -123 -40 0
-40 0 -12 56 c-24 106 -80 152 -149 124 -50 -21 -64 -50 -56 -120 l7 -60 -66
0 -65 0 0 118 c0 65 3 122 7 126 4 3 97 5 207 4 l201 -3 3 -122z m-175 4 c12
-8 37 -91 79 -255 60 -239 73 -271 101 -243 8 8 6 32 -11 93 -19 74 -20 85 -6
105 9 14 24 23 40 23 29 0 44 -28 65 -123 14 -63 32 -88 51 -69 9 9 9 25 1 67
-13 62 -10 81 18 96 32 17 57 -6 75 -69 19 -67 25 -75 48 -66 14 5 17 14 12
37 -12 61 47 103 77 55 8 -13 34 -100 58 -195 l44 -171 -18 -65 c-9 -36 -17
-76 -17 -90 0 -19 -7 -26 -27 -30 -16 -4 -121 -31 -235 -61 l-207 -54 -16 57
c-24 82 -52 112 -172 181 -160 93 -175 111 -131 157 31 33 64 29 151 -22 43
-25 82 -43 87 -40 18 11 11 44 -65 341 -41 161 -75 299 -75 307 0 19 27 47 44
47 7 0 20 -6 29 -13z m706 -1004 c11 -43 23 -92 27 -109 l6 -31 -279 -70
c-153 -39 -280 -69 -281 -68 -9 8 -52 198 -47 204 5 4 507 143 546 150 4 0 16
-34 28 -76z"/>
<path d="M352 2394 c-42 -29 -17 -104 35 -104 20 0 53 38 53 60 0 22 -33 60
-53 60 -7 0 -23 -7 -35 -16z"/>
<path d="M563 2400 c-43 -18 -41 -84 4 -101 59 -22 102 59 51 95 -25 18 -25
18 -55 6z"/>
<path d="M768 2399 c-44 -25 -43 -75 2 -99 27 -14 69 7 77 38 5 20 0 31 -21
49 -30 26 -34 27 -58 12z"/>
<path d="M1275 2359 c-16 -25 19 -29 221 -27 178 3 209 5 209 18 0 13 -31 15
-212 18 -147 2 -214 -1 -218 -9z"/>
<path d="M1800 2350 c0 -20 5 -21 78 -18 60 2 77 6 77 18 0 12 -17 16 -77 18
-73 3 -78 2 -78 -18z"/>
<path d="M1334 2017 c-2 -7 -3 -78 -2 -157 l3 -145 245 0 245 0 0 155 0 155
-243 3 c-193 2 -244 0 -248 -11z m456 -147 l0 -120 -210 0 -210 0 0 120 0 120
210 0 210 0 0 -120z"/>
<path d="M265 2000 c-4 -6 -1 -17 5 -26 11 -12 73 -14 429 -12 l416 3 3 23 3
22 -425 0 c-284 0 -427 -3 -431 -10z"/>
<path d="M271 1764 c-13 -10 -13 -14 -2 -28 12 -14 32 -16 125 -14 107 3 111
4 114 26 2 12 0 22 -5 23 -77 6 -219 2 -232 -7z"/>
<path d="M629 1766 c-16 -17 -10 -35 14 -41 12 -3 123 -4 247 -3 225 3 225 3
228 26 2 12 0 22 -5 23 -59 6 -476 2 -484 -5z"/>
<path d="M270 1526 c-6 -9 -9 -20 -5 -26 4 -7 147 -10 431 -10 l425 0 -3 23
-3 22 -416 3 c-356 2 -418 0 -429 -12z"/>
<path d="M267 1287 c-13 -35 4 -37 309 -35 291 3 299 4 299 23 0 19 -8 20
-301 23 -247 2 -303 0 -307 -11z"/>
<path d="M1004 1285 c-10 -26 10 -36 62 -33 41 3 49 6 49 23 0 17 -8 20 -53
23 -41 2 -54 0 -58 -13z"/>
<path d="M265 1050 c-4 -6 -1 -17 5 -26 11 -12 73 -14 429 -12 l416 3 3 23 3
22 -425 0 c-284 0 -427 -3 -431 -10z"/>
<path d="M270 815 c-10 -12 -10 -18 0 -30 11 -13 70 -15 419 -15 223 0 412 4
419 9 8 5 12 17 10 27 -3 18 -21 19 -419 22 -361 2 -418 0 -429 -13z"/>
<path d="M2182 364 c-45 -31 -20 -107 36 -107 42 0 62 19 62 59 0 34 -28 64
-60 64 -9 0 -26 -7 -38 -16z m71 -36 c8 -12 7 -21 -2 -32 -19 -22 -48 -20 -61
5 -23 41 38 68 63 27z"/>
</g>
</svg>
